<svg version="1.1" id="Layer_1" xmlns="http://www.w3.org/2000/svg" xmlns:xlink="http://www.w3.org/1999/xlink" x="0px" y="0px"
	 width="100%" viewBox="0 0 832 864" enable-background="new 0 0 832 864" xml:space="preserve">
<path fill="#000000" opacity="1.000000" stroke="none" 
	d="
M599.749878,797.843628 
	C556.971558,819.244690 512.129761,832.308838 464.958771,837.422302 
	C414.894531,842.849426 365.497742,839.161499 316.892792,826.038147 
	C271.924225,813.896545 230.344742,794.394592 192.209137,767.577576 
	C144.875366,734.292175 106.666252,692.577759 77.170280,642.887573 
	C52.244247,600.896057 36.165451,555.625305 27.707157,507.566864 
	C21.629555,473.035156 20.869003,438.253387 24.036598,403.505280 
	C29.406090,344.602570 47.435017,289.606201 77.437988,238.553207 
	C104.567162,192.390274 139.715240,153.315811 182.526154,121.397552 
	C232.452087,84.174614 288.224182,59.914360 349.622925,48.646557 
	C382.760162,42.565262 416.138519,40.640621 449.607971,43.163857 
	C533.570496,49.493725 608.675720,78.853493 673.968262,132.255661 
	C732.237244,179.913391 773.875854,239.449112 798.674988,310.546143 
	C816.452637,361.513214 823.058350,414.024200 819.542786,467.910370 
	C816.541077,513.919373 805.968628,558.006958 787.501343,600.226440 
	C770.200867,639.778503 747.184143,675.630615 718.279236,707.730957 
	C685.586731,744.037537 647.580200,773.392883 604.118958,795.695557 
	C602.785950,796.379639 601.424377,797.007996 599.749878,797.843628 
M248.425461,288.865906 
	C221.256500,344.650055 217.812363,401.897064 240.143967,459.763916 
	C262.495605,517.682556 304.483398,556.858521 361.436432,580.109375 
	C360.774109,582.812927 359.120544,583.811401 357.858368,585.075928 
	C336.435944,606.539001 315.032715,628.021729 293.500366,649.374146 
	C290.042175,652.803467 289.866669,655.174805 293.499084,658.771301 
	C319.425354,684.441040 345.215363,710.249451 370.880585,736.180176 
	C374.047516,739.379883 375.999451,739.145264 378.943726,736.181213 
	C397.957977,717.039795 417.089386,698.014709 436.175781,678.944946 
	C484.848358,630.314697 533.533997,581.697510 582.182739,533.043518 
	C620.844238,494.377869 641.730164,447.623016 644.544861,393.112091 
	C646.446594,356.282684 639.465149,320.790192 621.687622,288.449829 
	C581.752625,215.801468 520.365540,176.960342 436.817291,174.946671 
	C393.123413,173.893570 353.351227,186.541916 317.251648,210.828186 
	C287.771332,230.661301 265.064026,256.634674 248.425461,288.865906 
z"/>
<path fill="#000000" opacity="1.000000" stroke="none" 
	d="
M420.817596,470.413635 
	C381.793915,464.336761 350.626007,430.180969 347.522675,391.561066 
	C344.385986,352.525848 366.493195,316.251404 402.405518,302.224731 
	C458.189423,280.436707 516.388245,317.778046 522.488159,373.987335 
	C527.698242,421.997620 493.790649,463.817627 448.124298,470.684845 
	C439.187195,472.028809 430.197754,471.954254 420.817596,470.413635 
z"/>
</svg>